<svg version="1.1" id="Layer_1" xmlns="http://www.w3.org/2000/svg" xmlns:xlink="http://www.w3.org/1999/xlink" x="0px" y="0px"
	 width="100%" viewBox="0 0 1024 992" enable-background="new 0 0 1024 992" xml:space="preserve">
<path fill="#000000" opacity="1.000000" stroke="none" 
	d="
M988.077637,761.742737 
	C985.257019,787.349792 980.456787,812.167664 976.237366,837.079712 
	C974.072449,849.861633 971.990234,862.669067 970.361694,875.527161 
	C968.799011,887.865295 959.408752,897.609131 946.983582,898.978699 
	C944.515869,899.250671 942.886658,898.134583 941.487183,896.273193 
	C934.585876,887.093262 927.406067,878.109497 920.838867,868.697693 
	C917.973816,864.591614 915.421631,864.313232 911.351868,866.466370 
	C905.249084,869.695190 900.242615,874.381653 894.642822,878.266296 
	C885.551636,884.572937 885.483521,884.020508 879.145508,878.663818 
	C878.518616,878.133972 877.755920,877.739685 877.008972,877.380920 
	C870.110413,874.067383 869.772217,873.383911 870.606445,865.755798 
	C872.600037,847.526550 877.625122,829.841064 880.245361,811.727295 
	C880.981018,806.641968 881.377258,801.526123 880.455017,796.121094 
	C876.456116,796.480652 874.043640,799.283447 871.305237,801.163391 
	C845.775085,818.690491 820.618835,836.752380 794.739990,853.784302 
	C769.285889,870.536560 743.206665,886.194092 716.254211,900.387817 
	C694.296814,911.951050 671.736206,922.289124 648.415161,930.729248 
	C623.695312,939.675598 598.540527,947.354553 572.579224,951.976562 
	C549.097229,956.157166 525.431335,957.502808 501.571838,957.683960 
	C487.747192,957.788879 473.941010,957.905273 460.161774,957.095825 
	C445.408813,956.229187 430.697327,954.965576 416.010040,952.925110 
	C399.015289,950.564148 382.290649,947.100952 365.597748,943.359924 
	C328.230011,934.985352 291.228790,925.246399 255.749496,910.632202 
	C239.146103,903.793091 223.168655,895.530273 207.547592,886.583374 
	C187.047363,874.841858 166.316895,863.502136 145.670944,852.015625 
	C144.257492,851.229187 142.844650,850.182434 140.816544,850.844421 
	C139.501434,853.831604 141.061066,856.675598 141.822403,859.398438 
	C146.706039,876.863892 151.408066,894.387756 158.204895,911.262024 
	C159.810410,915.247925 160.609818,919.563538 161.715286,923.744568 
	C162.889160,928.184265 161.581985,932.105164 158.497513,935.238342 
	C154.462311,939.337341 149.323456,941.746765 143.931168,943.586243 
	C141.803207,944.312195 140.094391,943.102539 138.279312,942.257080 
	C130.742798,938.746582 123.598221,934.403625 115.601059,931.862915 
	C110.769966,930.328064 108.159607,931.883179 105.624893,936.347290 
	C99.392723,947.323364 92.433418,957.885803 85.807579,968.639893 
	C84.369865,970.973389 82.178185,971.304565 79.759453,971.334839 
	C73.604828,971.411987 67.443039,970.643982 61.292542,971.612488 
	C58.862247,971.995239 57.551437,970.541443 57.063969,968.322815 
	C51.623611,943.562805 42.154076,920.030518 35.006351,895.793396 
	C29.547215,877.282043 22.093952,859.366882 18.123901,840.426270 
	C15.866581,829.656860 14.530083,818.796143 18.599442,807.992798 
	C22.434111,797.812439 29.979055,791.367554 39.341705,786.743530 
	C69.796181,771.702576 100.261887,756.683167 130.814941,741.844177 
	C136.678848,738.996216 142.445557,736.112305 147.567673,732.062866 
	C149.932449,730.193359 151.917007,730.075989 154.689026,731.920776 
	C178.383286,747.689819 202.062683,763.490479 226.047974,778.809753 
	C243.452087,789.925720 261.922485,799.153992 280.611664,807.962463 
	C310.810089,822.195496 342.041748,833.594849 374.191772,842.428040 
	C397.801208,848.914795 421.872498,852.912292 446.313660,854.976562 
	C464.077698,856.476807 481.872925,857.424377 499.645264,857.255310 
	C521.792297,857.044617 543.753906,854.339294 565.485779,849.628357 
	C605.104309,841.039978 642.661804,826.726562 679.027710,809.186829 
	C716.346497,791.187439 750.782715,768.418396 784.245667,744.115479 
	C803.257690,730.307678 821.906921,716.066284 838.911011,699.793030 
	C841.673096,697.149658 844.388245,694.440552 846.934814,691.591736 
	C853.927002,683.769775 862.328369,681.791687 872.277466,684.785339 
	C895.725464,691.840637 918.386108,701.145020 941.597839,708.872681 
	C952.010986,712.339539 962.543640,715.450745 972.416626,720.446472 
	C982.520386,725.559021 987.338623,733.906372 988.105408,744.782471 
	C988.491028,750.252014 988.130432,755.774109 988.077637,761.742737 
M300.471802,839.133240 
	C280.191071,830.589905 260.549683,820.788696 241.693253,809.420654 
	C225.710510,799.785095 210.045715,789.677002 195.117950,778.460876 
	C193.086258,776.934326 191.438324,775.715332 189.379669,778.613708 
	C176.649506,796.536560 163.830338,814.396301 151.000671,832.248169 
	C149.124893,834.858276 149.673004,836.323486 152.318558,838.233154 
	C174.510910,854.252258 197.941742,868.167480 222.184128,880.854370 
	C247.933716,894.329956 274.704803,905.351440 302.325073,914.084290 
	C324.354980,921.049744 346.726074,926.985413 369.426056,931.650635 
	C392.624847,936.418274 416.018219,939.853271 439.577454,941.399475 
	C460.305176,942.759705 481.123901,943.142029 501.938385,943.168579 
	C530.879517,943.205444 559.373901,939.908142 587.633179,933.913635 
	C617.853760,927.503052 647.150879,918.161255 675.666260,906.359131 
	C706.805908,893.471008 736.780090,878.293945 765.339905,860.344116 
	C786.398438,847.108826 806.222107,832.213806 825.041687,816.005615 
	C835.249084,807.214661 845.143433,798.042053 854.355957,788.169373 
	C856.064758,786.338135 856.277161,784.921082 855.361023,782.470886 
	C849.007141,765.477783 842.948486,748.374634 836.704163,731.340027 
	C835.702759,728.608093 835.145935,725.578308 832.977966,723.454956 
	C830.988342,723.504822 830.119141,724.842102 829.108948,725.880615 
	C824.361389,730.761597 819.593445,735.600525 814.602966,740.256531 
	C788.798950,764.330627 760.500427,785.134644 730.551025,803.605103 
	C695.578186,825.173523 658.555603,842.538513 619.448669,855.426392 
	C585.121704,866.738953 550.151428,874.812439 513.955994,875.997437 
	C483.829376,876.983765 453.747345,876.184937 423.691467,872.621582 
	C381.139008,867.576477 340.721832,855.275391 300.471802,839.133240 
z"/>
<path fill="#000000" opacity="1.000000" stroke="none" 
	d="
M118.727402,561.611206 
	C115.248878,534.569153 118.507256,508.400360 124.925552,482.575470 
	C130.569672,459.865540 139.628311,438.449463 150.418015,417.677246 
	C160.423767,398.414276 171.771790,380.095459 184.521027,362.516205 
	C197.838074,344.154022 202.379440,323.088043 200.988342,300.600250 
	C198.755234,264.500916 184.471481,233.440994 161.595734,205.943939 
	C153.138199,195.777802 143.458740,187.589645 130.276382,183.870972 
	C121.662613,181.441055 121.508598,179.907776 127.649612,173.560806 
	C161.000717,139.091080 191.778793,102.305595 223.919693,66.747421 
	C232.848526,56.869263 243.343735,48.464325 251.343582,37.715599 
	C252.905960,35.616344 254.440216,36.497280 256.139191,37.275806 
	C268.241302,42.821400 280.256317,48.569538 292.474396,53.847286 
	C328.766754,69.524208 365.783081,83.424446 404.786896,90.359901 
	C446.874603,97.843719 489.183319,98.674332 531.363464,89.476486 
	C570.057861,81.038742 606.227661,66.045441 641.334900,48.207024 
	C655.582642,40.967579 669.563660,33.197632 683.576050,25.505148 
	C686.405823,23.951649 688.203552,24.237686 690.498474,26.504395 
	C707.931274,43.723045 727.303223,58.735474 745.725525,74.830856 
	C759.640015,86.987755 773.319824,99.416878 786.966370,111.875702 
	C799.264771,123.103760 811.653503,134.219879 824.341125,145.010300 
	C829.341614,149.263062 829.266357,150.568649 823.362061,152.718185 
	C800.967224,160.871292 790.950378,179.965042 781.972229,199.633682 
	C772.190796,221.062225 767.197083,243.736740 767.134766,267.421509 
	C767.066528,293.368256 774.010498,316.176514 792.646912,335.546814 
	C813.647888,357.374817 829.607117,383.026001 843.393433,409.987793 
	C857.518005,437.611115 868.057251,466.447113 871.702576,497.376892 
	C875.435120,529.046753 871.128235,559.312500 852.119019,585.936401 
	C840.849365,601.720398 826.453735,614.702393 812.220459,627.796997 
	C788.645386,649.486023 763.185364,668.761597 737.430603,687.723877 
	C699.332275,715.774292 660.158997,742.296814 621.641174,769.748962 
	C596.166626,787.905090 570.727051,806.109802 544.804077,823.629395 
	C535.468872,829.938416 528.007874,837.778625 525.785278,849.443665 
	C525.108398,852.996277 522.876648,853.433167 519.798279,852.082642 
	C512.054321,848.685425 505.655823,843.246948 499.390594,837.870178 
	C470.430664,813.016968 437.949036,794.101440 403.050049,778.949219 
	C376.027130,767.216553 349.428741,754.501343 322.353577,742.894836 
	C289.871277,728.970398 257.806396,714.270569 227.347458,696.274536 
	C201.735092,681.141907 177.663788,664.043762 157.726990,641.630981 
	C137.317795,618.687134 123.599800,592.537292 118.727402,561.611206 
M782.714478,150.205093 
	C786.763672,146.284760 785.321655,143.359512 781.541138,140.000717 
	C750.812805,112.699913 720.136841,85.338402 689.676758,57.739552 
	C685.494568,53.950233 682.825989,53.737659 677.942810,56.729919 
	C651.881104,72.699654 624.170654,85.349792 595.428345,95.675339 
	C576.473145,102.484917 557.017212,107.716133 537.510681,112.676689 
	C517.341919,117.805664 497.116821,122.936432 476.044373,122.141678 
	C469.575531,121.897697 463.144684,120.776512 456.677216,120.344322 
	C431.721832,118.676704 407.060486,114.941422 382.612885,109.794189 
	C362.071838,105.469437 341.965057,99.555603 322.116486,92.721054 
	C301.474304,85.613243 280.978668,78.163292 261.845245,67.499557 
	C259.142303,65.993126 257.930237,67.198158 256.396484,68.862267 
	C250.530945,75.226303 244.521408,81.462074 238.785919,87.940750 
	C215.503143,114.240364 192.337830,140.644028 169.028259,166.919785 
	C165.900589,170.445450 166.148376,172.952347 169.634171,176.026688 
	C181.694000,186.662949 192.079178,198.690659 200.286682,212.636093 
	C218.638977,243.818573 229.786713,277.072845 229.130936,313.564270 
	C228.721085,336.370026 222.726593,357.729218 208.694229,376.109741 
	C193.041016,396.613373 180.340286,418.792725 169.967285,442.318817 
	C157.726517,470.080994 149.718994,498.919403 147.975128,529.416016 
	C146.387100,557.187256 153.025818,582.635193 168.527222,605.604675 
	C183.055984,627.133057 202.082062,644.253601 223.194519,659.126526 
	C243.657349,673.541931 265.389679,685.811157 287.895813,696.710876 
	C314.255432,709.476807 341.072693,721.234192 368.077820,732.557007 
	C395.309631,743.974915 420.664642,759.079468 446.826202,772.587708 
	C466.493378,782.742615 485.965790,793.363220 504.889587,804.825439 
	C512.368958,809.355713 517.115723,807.699402 523.300964,803.333191 
	C546.695251,786.818970 570.256470,770.534790 593.956421,754.461365 
	C628.959900,730.721741 664.219116,707.371277 698.099426,682.002747 
	C738.100342,652.051208 778.243103,622.315308 814.346802,587.565735 
	C826.376892,575.986877 835.084473,562.560547 839.643127,546.417480 
	C846.128662,523.450623 844.161682,500.417175 839.316650,477.681396 
	C833.876587,452.153412 823.808716,428.242920 810.963257,405.466461 
	C798.839478,383.969604 782.373535,365.782013 767.011719,346.763123 
	C757.368591,334.824188 749.605103,322.034821 745.075867,307.310028 
	C736.870361,280.633331 737.207275,253.734924 743.754028,226.944794 
	C750.665955,198.660553 761.611145,172.197571 782.714478,150.205093 
z"/>
<path fill="#000000" opacity="1.000000" stroke="none" 
	d="
M706.389099,863.585815 
	C703.276489,857.696472 700.336426,852.135864 696.706177,845.269714 
	C696.790833,853.882690 698.974670,860.617981 700.072815,867.517151 
	C700.450623,869.890442 701.270813,872.401001 698.270752,874.104004 
	C695.725952,875.548401 693.840576,875.804871 691.809326,873.253235 
	C689.077148,869.821045 686.738831,865.993713 682.844482,862.691223 
	C681.735596,867.321594 683.444580,870.895935 684.026428,874.552612 
	C684.568970,877.963135 684.398438,880.724915 680.674438,882.384644 
	C676.791870,884.114929 675.678589,881.059021 674.026978,878.941467 
	C671.069641,875.150024 668.218262,871.275940 664.823120,867.408752 
	C668.194824,877.050842 669.621826,886.227844 658.760864,891.901245 
	C652.641296,895.097778 645.137207,893.369446 641.010681,888.418579 
	C635.408142,881.696716 634.561462,873.059326 638.831177,866.186829 
	C642.307617,860.591248 650.093628,858.682922 659.564331,861.388977 
	C658.979187,858.422607 659.198059,855.869690 662.608154,854.884705 
	C666.009277,853.902405 666.796753,856.719482 668.413513,858.450378 
	C670.315613,860.487000 671.300232,863.299438 674.197510,865.198120 
	C675.150330,861.258972 673.907654,857.767517 673.408081,854.313843 
	C673.028748,851.691711 673.200623,849.907532 675.926270,848.641785 
	C678.755615,847.328003 680.856689,847.328918 682.811279,850.064941 
	C684.824707,852.883240 687.129761,855.493164 689.768127,858.765991 
	C690.814331,854.654724 689.539490,851.425110 688.600281,848.333191 
	C687.417175,844.437988 688.803650,842.452454 692.290100,841.000488 
	C701.296387,837.249634 701.266541,837.184753 706.014465,846.123901 
	C706.873474,847.741211 707.785767,849.330566 708.629456,850.955627 
	C712.603088,858.609009 713.079773,858.754517 720.653748,854.522034 
	C722.337463,853.581116 723.848022,851.841370 726.069580,853.190918 
	C728.499756,854.667297 728.619568,858.292725 726.053528,859.786011 
	C721.453247,862.463196 716.728333,864.940491 711.961304,867.311890 
	C708.550659,869.008423 707.712952,866.090759 706.389099,863.585815 
M654.718689,868.771118 
	C648.951233,866.589417 644.352051,868.824097 644.094482,874.041748 
	C643.924133,877.491638 645.273987,880.508789 647.361267,883.193237 
	C648.914795,885.191101 650.986816,886.062561 653.489868,885.557800 
	C656.097351,885.032043 658.014771,883.633972 658.806213,880.945190 
	C660.184875,876.261719 658.136597,872.615601 654.718689,868.771118 
z"/>
<path fill="#000000" opacity="1.000000" stroke="none" 
	d="
M781.284424,806.905762 
	C779.920532,800.526611 785.585571,799.670105 788.743164,797.200745 
	C791.404724,795.119202 792.669678,798.319580 794.016052,800.072021 
	C799.175903,806.788330 799.280334,809.679138 794.636169,815.371582 
	C789.349182,821.851929 782.422058,823.896973 776.162781,820.702698 
	C774.119995,819.660156 772.229065,818.320068 770.280457,817.123352 
	C769.387085,818.010132 770.122437,818.725708 770.344299,819.419250 
	C772.940918,827.536499 771.690796,831.964783 764.613525,836.584961 
	C752.991211,844.172241 755.179871,844.232971 748.454590,833.582092 
	C745.613647,829.082886 742.987732,824.444519 740.051880,820.009766 
	C738.002563,816.914246 737.916443,814.565491 741.546631,812.740967 
	C742.877930,812.071777 744.114685,811.200439 745.349304,810.355286 
	C751.660217,806.034912 758.043884,804.413330 764.749023,810.303406 
	C765.805786,808.267151 764.836731,806.702515 764.787537,805.202454 
	C764.517029,796.948120 771.829041,788.754028 779.688232,788.787781 
	C782.685608,788.800720 786.616089,788.945129 786.651367,792.688782 
	C786.684875,796.250793 783.595886,797.754639 779.790955,797.227051 
	C775.775146,796.670288 773.483459,798.977417 772.627686,802.629272 
	C771.733215,806.445801 775.888428,812.281494 780.299316,813.768799 
	C783.845337,814.964417 786.490967,813.718323 788.321777,810.630249 
	C788.695435,809.999939 788.590698,809.085999 788.745789,808.037109 
	C786.222168,807.378784 783.342285,810.605469 781.284424,806.905762 
M755.913208,814.624756 
	C749.372009,815.040039 748.033569,817.185486 750.995911,822.588013 
	C751.952271,824.332214 752.946899,826.066956 754.072083,827.704224 
	C755.404114,829.642517 756.329407,832.694458 759.672363,830.923035 
	C762.920532,829.201721 764.805054,826.710327 763.090149,822.777405 
	C761.669373,819.519043 759.888733,816.583191 755.913208,814.624756 
z"/>
<path fill="#000000" opacity="1.000000" stroke="none" 
	d="
M279.172424,844.689148 
	C279.765961,845.283508 280.101166,845.833313 280.517181,845.903442 
	C289.063507,847.342834 289.065369,847.332031 288.341797,856.344849 
	C287.971252,860.960083 288.022369,861.348267 289.452148,864.510437 
	C292.676239,864.134216 293.760193,861.136536 295.730530,859.266907 
	C297.175110,857.896240 298.331665,856.219849 299.789398,854.865723 
	C302.203857,852.623047 304.733490,854.071350 306.569092,855.530518 
	C308.950653,857.423767 306.640594,859.033875 305.374847,860.437866 
	C300.025055,866.371704 294.605560,872.242859 289.259186,878.179749 
	C287.227234,880.436157 285.212494,881.909424 281.885742,880.495178 
	C278.683350,879.133911 278.672211,876.703369 278.744385,873.932007 
	C278.894440,868.172058 280.764221,862.482483 279.637451,856.120361 
	C276.836334,857.571350 274.936615,859.770935 272.198578,860.560181 
	C270.778137,860.969604 270.593994,862.525635 270.720215,863.945496 
	C270.882324,865.769165 271.148468,867.597717 271.120361,869.420349 
	C271.088989,871.458008 271.829773,874.582214 268.855560,874.602478 
	C265.904327,874.622620 262.981812,873.090942 262.734955,869.298401 
	C262.583679,866.974365 262.712097,864.620728 262.403931,862.322083 
	C262.196625,860.775879 262.193085,858.764526 260.055481,858.353760 
	C258.152649,857.988098 256.951874,859.180237 255.992722,860.656494 
	C255.267273,861.773010 254.577377,862.917542 253.781937,863.982605 
	C252.108841,866.222778 250.078140,865.822144 248.045746,864.579346 
	C246.077835,863.375916 246.027420,861.661316 247.053879,859.827332 
	C251.199509,852.420532 255.335632,845.007874 259.557983,837.644897 
	C260.910736,835.286011 262.683685,834.622437 265.370392,836.152771 
	C269.981964,838.779480 275.079956,840.579407 279.172424,844.689148 
M268.527008,846.080933 
	C266.413940,844.970154 264.538727,845.179565 263.671509,847.564453 
	C262.896057,849.697144 264.842957,850.446472 266.261322,851.142212 
	C267.917816,851.954712 269.939728,852.580627 271.182678,850.682068 
	C272.609680,848.502197 270.615417,847.478149 268.527008,846.080933 
z"/>
<path fill="#000000" opacity="1.000000" stroke="none" 
	d="
M389.953369,880.854736 
	C395.306702,881.435059 399.750366,884.036255 404.842346,884.129395 
	C408.074951,884.188538 409.450317,886.084534 408.597839,889.574951 
	C407.993591,892.048950 407.127380,894.937988 410.630707,896.410400 
	C414.299225,897.952148 416.550812,896.851562 417.554810,892.741516 
	C417.989349,890.962708 418.063965,889.028809 419.347961,887.629578 
	C420.513214,886.359619 422.086334,886.677124 423.554626,887.169495 
	C425.427429,887.797424 426.250092,889.266541 425.932495,891.067383 
	C424.429565,899.588379 422.846130,908.095886 421.188293,916.588135 
	C420.793091,918.612488 419.116333,919.060181 417.297363,918.770569 
	C415.357727,918.461792 413.655762,917.707886 413.853088,915.316406 
	C414.003143,913.498352 414.382965,911.698181 414.683502,909.893860 
	C415.217255,906.689148 414.082642,904.819519 410.676147,904.369385 
	C407.356110,903.930603 405.613617,905.167786 405.238708,908.526611 
	C405.055237,910.170105 404.632263,911.796997 404.201508,913.400208 
	C403.622040,915.557007 402.160400,916.243896 400.000488,915.805237 
	C397.666229,915.331177 396.459137,914.120239 396.869019,911.629761 
	C397.734222,906.372070 398.615540,901.116821 399.439667,895.852722 
	C399.852905,893.213135 400.590973,890.666687 396.465240,889.880859 
	C392.667603,889.157471 391.151703,890.867859 390.375763,893.970154 
	C389.246521,898.485107 388.198853,903.023010 387.241333,907.577393 
	C386.596436,910.644897 385.649536,913.198303 381.727844,912.182495 
	C377.910858,911.193665 378.726227,908.449768 379.394867,905.770935 
	C380.482697,901.412903 381.614929,897.063904 382.585938,892.679565 
	C383.258728,889.641785 382.894623,887.047058 379.195923,886.078857 
	C376.799438,885.451538 375.440491,884.017212 376.433197,881.257263 
	C377.417908,878.519409 379.505798,878.548401 381.752472,879.011780 
	C384.359436,879.549500 386.944824,880.191711 389.953369,880.854736 
z"/>
<path fill="#000000" opacity="1.000000" stroke="none" 
	d="
M638.515442,894.508179 
	C639.560730,897.366394 638.184387,898.552673 636.151245,899.486023 
	C634.079529,900.437012 632.340332,900.098999 630.665161,898.595276 
	C626.989380,895.295654 623.259277,892.056458 618.473755,887.843994 
	C619.629517,892.324890 620.352844,895.498413 621.278748,898.611694 
	C622.153687,901.553467 622.766663,904.224854 618.750549,905.281250 
	C614.895142,906.295166 614.806335,903.234253 614.125549,900.975220 
	C611.971985,893.828003 609.934692,886.645752 607.808960,879.490051 
	C607.237183,877.565491 606.198181,875.565979 608.779358,874.343872 
	C610.913635,873.333374 613.051575,872.552734 615.226624,874.553162 
	C618.588928,877.645691 622.086792,880.590698 625.926147,883.947083 
	C627.284485,880.265076 625.803040,877.708374 625.049500,875.148254 
	C624.216003,872.316589 623.030823,869.520020 627.044739,868.262085 
	C631.435791,866.885986 631.495728,870.616455 632.261780,873.098145 
	C634.415833,880.076050 636.366821,887.116699 638.515442,894.508179 
z"/>
<path fill="#000000" opacity="1.000000" stroke="none" 
	d="
M447.563599,921.490906 
	C444.926239,921.183228 443.774261,919.623840 442.778412,917.805969 
	C441.501770,915.475586 440.187653,913.163025 438.804108,910.895020 
	C438.017700,909.605896 437.061005,908.278198 435.246124,908.883240 
	C433.770996,909.374939 433.486084,910.764587 433.379028,912.126343 
	C433.248871,913.781677 433.298126,915.457764 433.071533,917.097473 
	C432.723907,919.613159 430.989716,920.251465 428.709747,920.023499 
	C426.383087,919.790955 425.081116,918.874573 425.324951,916.199158 
	C426.047943,908.266357 426.982239,900.343506 426.837769,892.352112 
	C426.781891,889.262329 428.358368,887.678467 431.466980,887.912292 
	C435.605286,888.223633 439.761810,888.474670 443.859558,889.090515 
	C447.685730,889.665405 450.716034,891.537537 451.847626,895.616211 
	C452.991089,899.737549 451.792358,903.132263 448.780975,906.004883 
	C448.184723,906.573730 447.554871,907.107300 446.669891,907.899292 
	C448.203888,910.997009 449.680847,914.104248 451.268280,917.153931 
	C453.297852,921.053101 452.230042,922.505310 447.563599,921.490906 
M435.425781,897.760498 
	C435.356262,902.444519 438.765778,900.791138 441.118713,900.763794 
	C442.536865,900.747253 443.917328,899.839966 443.438416,898.224854 
	C442.601135,895.401062 440.016296,896.189392 437.975464,896.165039 
	C437.239349,896.156189 436.495972,896.754089 435.425781,897.760498 
z"/>
<path fill="#000000" opacity="1.000000" stroke="none" 
	d="
M524.658203,897.492615 
	C518.756287,901.457092 518.456726,910.278137 523.782715,914.116516 
	C526.893188,916.358337 529.822144,916.366394 532.351868,913.233826 
	C532.127258,912.678467 532.090637,912.220886 531.872498,912.104919 
	C529.565613,910.879272 525.986633,910.918701 526.813232,906.708557 
	C527.569153,902.857971 530.884583,903.883911 533.244568,903.441528 
	C539.851257,902.203125 540.894104,902.962463 541.275513,908.480835 
	C541.910339,917.664368 541.243835,919.067993 535.049255,921.593384 
	C527.911316,924.503418 520.921326,923.087891 516.359070,917.808594 
	C511.470581,912.151672 510.533447,902.277405 514.316467,896.284912 
	C517.663635,890.982849 524.508728,888.327942 530.890991,889.837830 
	C533.753662,890.515198 536.131287,891.937073 537.846558,894.352295 
	C539.064575,896.067322 540.051758,897.887878 537.940491,899.618286 
	C536.122498,901.108337 534.015442,901.883057 532.141785,899.892822 
	C530.136597,897.762939 527.934631,896.713623 524.658203,897.492615 
z"/>
<path fill="#000000" opacity="1.000000" stroke="none" 
	d="
M237.957565,824.107788 
	C239.670654,821.856628 241.312515,822.549255 242.984619,823.586243 
	C247.369568,826.305420 251.760544,829.014832 256.147766,831.730286 
	C258.020691,832.889465 259.275879,834.203552 257.902893,836.609924 
	C256.549072,838.982788 254.890198,839.461792 252.562317,837.998901 
	C250.449448,836.671143 248.271454,835.445557 246.103851,834.206970 
	C244.595215,833.344910 242.916290,832.590637 241.637222,834.349609 
	C240.038666,836.548096 242.281723,837.199158 243.523010,838.064392 
	C245.296173,839.300415 247.200577,840.346436 249.026230,841.509216 
	C251.048035,842.796814 251.522797,844.442993 250.283966,846.607239 
	C248.979385,848.886353 247.261154,848.934265 245.231201,847.772461 
	C243.207626,846.614319 241.223816,845.384766 239.178482,844.267212 
	C237.635727,843.424377 236.015366,842.888489 234.821716,844.821594 
	C233.617981,846.770996 234.267807,848.348633 236.038437,849.516418 
	C238.262543,850.983215 240.531982,852.383118 242.807877,853.769165 
	C244.749542,854.951660 245.880524,856.412537 244.544479,858.688538 
	C243.219467,860.945801 241.341690,861.504089 239.054596,860.138123 
	C234.767059,857.577209 230.596222,854.804260 226.204636,852.439270 
	C222.538208,850.464783 222.044830,848.263306 224.355972,844.856262 
	C228.933258,838.108521 233.306122,831.222107 237.957565,824.107788 
z"/>
<path fill="#000000" opacity="1.000000" stroke="none" 
	d="
M735.842712,838.801880 
	C733.940735,840.265381 731.327271,841.064636 733.118896,843.966492 
	C734.897827,846.847717 736.853210,844.936646 738.679504,844.049072 
	C740.770996,843.032532 742.835876,841.940979 744.822815,840.734680 
	C746.851013,839.503174 748.585205,839.504761 750.025146,841.530945 
	C751.480591,843.578979 750.998108,845.393005 748.959290,846.614441 
	C743.829590,849.687805 738.649414,852.679504 733.437012,855.610718 
	C731.096313,856.926941 729.734741,855.511597 728.662231,853.564819 
	C724.890991,846.719360 721.191528,839.831909 717.278442,833.068237 
	C715.444763,829.898987 716.143738,827.800842 719.178223,826.101501 
	C723.095215,823.908081 726.974487,821.647461 730.876038,819.426392 
	C733.164673,818.123474 735.489380,816.999817 737.251282,820.125916 
	C739.030457,823.282471 736.864014,824.578674 734.506042,825.862427 
	C732.318359,827.053467 730.197327,828.377075 728.112427,829.742432 
	C727.130798,830.385193 726.198364,831.268066 726.974854,832.631897 
	C727.702759,833.910278 728.952393,833.867615 730.044434,833.357422 
	C732.301086,832.302917 734.522095,831.153625 736.675049,829.901123 
	C738.632019,828.762695 740.394531,828.293701 741.798828,830.590820 
	C743.178345,832.847290 742.745361,834.687256 740.415100,836.039062 
	C738.976318,836.873657 737.560425,837.747742 735.842712,838.801880 
z"/>
<path fill="#000000" opacity="1.000000" stroke="none" 
	d="
M202.606079,836.311462 
	C201.136475,833.805176 201.361191,831.482910 201.915207,829.187927 
	C202.376389,827.277588 202.694046,824.800049 205.347229,825.058655 
	C207.801086,825.297913 209.660995,826.877258 209.916153,829.593323 
	C210.103806,831.590576 209.956818,833.696899 211.799332,835.039429 
	C213.120483,836.002197 214.625427,837.234863 216.287537,835.870911 
	C217.984894,834.478088 217.147018,832.833801 216.173035,831.419434 
	C214.947128,829.639343 213.485229,828.017517 212.310745,826.207031 
	C209.683990,822.157776 209.460800,818.012878 212.681244,814.207520 
	C215.793808,810.529785 221.077454,809.705994 225.455292,812.278748 
	C229.510605,814.661865 233.509476,817.320374 233.258209,822.922791 
	C233.152161,825.287109 232.979614,828.077454 229.859161,828.056763 
	C227.318970,828.039978 224.963394,826.830994 224.885406,823.580688 
	C224.807510,820.333679 223.049515,818.909180 219.977493,818.788269 
	C218.522522,821.150879 220.259521,822.385803 221.316345,823.754578 
	C222.840195,825.728271 224.587372,827.537537 225.462753,829.946350 
	C226.947327,834.031555 226.680573,837.880920 223.518524,841.066467 
	C219.978104,844.633484 215.620071,845.289246 211.078278,843.464844 
	C207.666367,842.094299 204.545746,840.113281 202.606079,836.311462 
z"/>
<path fill="#000000" opacity="1.000000" stroke="none" 
	d="
M599.805176,903.212891 
	C597.754700,901.899109 596.869751,898.399902 593.994446,900.258972 
	C591.611755,901.799438 592.399536,904.300415 593.194336,906.603516 
	C594.176880,909.450684 594.786438,912.258606 590.705994,913.275940 
	C586.819397,914.244934 586.321472,911.460388 585.646118,908.789246 
	C583.813660,901.541687 581.941711,894.304260 580.093506,887.060669 
	C579.490112,884.695923 578.994690,882.526733 582.304321,881.529724 
	C585.561218,880.548584 586.905701,881.771545 587.553162,884.827759 
	C587.847961,886.219055 588.201843,887.785522 589.999817,889.006470 
	C594.644226,884.783691 594.785278,874.746643 604.775391,876.363647 
	C604.956360,880.810364 602.041260,883.680908 600.477051,887.022949 
	C599.223389,889.701538 599.243164,891.506592 601.683105,893.486328 
	C604.643616,895.888184 607.339050,898.635681 610.004944,901.374023 
	C611.349609,902.755432 614.720764,903.976501 612.604004,906.269104 
	C610.712402,908.317749 607.401306,909.507202 604.426147,907.524902 
	C602.791443,906.435730 601.499207,904.832642 599.805176,903.212891 
z"/>
<path fill="#000000" opacity="1.000000" stroke="none" 
	d="
M341.851868,902.285339 
	C334.678406,900.876160 334.505585,900.623657 336.165466,894.110962 
	C337.762878,887.843323 339.394318,881.584351 340.993134,875.316956 
	C342.045837,871.190430 343.933472,868.836304 348.784760,870.546509 
	C352.847107,871.978699 357.107269,872.865479 361.304504,873.893066 
	C363.817841,874.508484 365.823761,875.365479 364.958313,878.557861 
	C364.143036,881.565186 362.188110,881.828674 359.540436,881.028076 
	C357.006958,880.261963 354.398224,879.720154 351.795929,879.217468 
	C350.583069,878.983154 349.389496,879.365601 349.008270,880.725220 
	C348.583740,882.239197 349.764130,882.862793 350.869720,883.200928 
	C353.243866,883.927002 355.679962,884.447693 358.073639,885.113770 
	C360.239655,885.716553 361.686554,886.850830 360.932556,889.429749 
	C360.291931,891.620972 359.074982,892.988892 356.584198,892.389771 
	C354.161469,891.807068 351.771851,891.085083 349.345184,890.520996 
	C347.813995,890.165161 346.255768,890.178406 345.571594,891.976196 
	C344.843262,893.890137 345.682007,895.335754 347.465546,895.966492 
	C350.121490,896.905701 352.860443,897.620117 355.585114,898.351868 
	C357.909729,898.976318 359.677460,899.817261 358.732269,902.807861 
	C357.815369,905.708984 355.997833,906.195679 353.314850,905.384277 
	C349.657776,904.278320 345.949127,903.342957 341.851868,902.285339 
z"/>
<path fill="#000000" opacity="1.000000" stroke="none" 
	d="
M480.416443,895.811768 
	C483.750549,901.674133 484.187103,907.521362 482.340363,913.510437 
	C480.543884,919.336670 475.260498,923.104370 469.185974,923.165894 
	C462.500702,923.233582 457.165649,919.846680 455.013367,914.128784 
	C454.003540,911.445984 453.658508,908.656921 453.704987,905.791504 
	C453.821289,898.620361 457.163300,892.687378 462.604126,890.904663 
	C469.354004,888.692932 475.443542,889.723572 480.416443,895.811768 
M466.307709,914.966736 
	C470.307343,915.965210 473.368317,914.499695 474.880096,910.845581 
	C476.459869,907.027283 476.601746,902.979370 473.624268,899.594482 
	C470.677765,896.244751 465.875061,896.610107 463.295715,900.195679 
	C460.096954,904.642334 461.135132,911.168213 466.307709,914.966736 
z"/>
<path fill="#000000" opacity="1.000000" stroke="none" 
	d="
M545.230103,914.450073 
	C544.126099,907.794250 543.013672,901.573425 542.157410,895.317566 
	C541.775024,892.523499 540.464844,889.026611 545.006897,888.124878 
	C549.801636,887.173035 549.542114,891.060059 549.924072,893.791321 
	C550.374023,897.008728 551.076233,899.176025 555.068054,898.725647 
	C558.905823,898.292542 560.390015,896.587769 559.598694,892.774231 
	C559.206116,890.882080 558.133362,888.885315 559.563171,887.012329 
	C560.666321,885.567322 562.377441,885.223633 564.058167,885.289734 
	C566.212097,885.374390 566.664429,887.205627 566.931335,888.827454 
	C568.253906,896.864258 569.442383,904.922974 570.744568,912.963196 
	C571.212646,915.853271 569.960938,917.500488 567.244019,917.977600 
	C564.194580,918.513062 563.260437,916.647766 562.766724,913.974854 
	C562.128906,910.521973 563.151733,905.578979 556.943909,906.232117 
	C553.748901,906.568237 552.017578,908.019714 552.743591,911.523865 
	C553.045776,912.982544 553.083679,914.494385 553.283020,915.976440 
	C553.669067,918.846252 552.347961,920.440063 549.572754,920.818176 
	C546.566467,921.227905 545.943909,919.185730 545.674500,916.836975 
	C545.598755,916.177002 545.444336,915.526001 545.230103,914.450073 
z"/>
<path fill="#000000" opacity="1.000000" stroke="none" 
	d="
M800.068909,770.050354 
	C802.762390,768.407471 804.100891,769.827393 805.162903,771.716370 
	C806.231995,773.617798 804.877747,774.790039 803.731140,776.033325 
	C801.272766,778.698975 797.822693,780.331726 795.762695,783.359131 
	C796.942688,786.184753 798.627930,786.134827 800.573792,784.639343 
	C802.422180,783.218750 804.212891,781.722900 806.023010,780.252808 
	C807.660278,778.923157 809.202759,778.518860 810.727234,780.474365 
	C812.178955,782.336609 812.438232,783.991150 810.391907,785.634644 
	C808.705078,786.989380 807.191895,788.565491 805.470886,789.871033 
	C803.466919,791.390991 802.388428,792.960632 804.323059,795.245667 
	C806.386475,797.682617 807.919983,795.571228 809.385193,794.499084 
	C811.258728,793.128113 812.928650,791.478027 814.679138,789.940002 
	C816.543030,788.302490 818.457520,787.707336 820.315247,789.870422 
	C822.088013,791.934631 821.667175,793.755615 819.591614,795.421753 
	C815.437073,798.756653 811.286682,802.100647 807.237854,805.561646 
	C805.282227,807.233215 803.730347,807.109863 802.174072,805.155090 
	C797.093262,798.773132 791.986328,792.411987 786.922180,786.016907 
	C785.144592,783.771973 785.481812,781.791931 787.746704,779.997559 
	C791.791870,776.792542 795.769714,773.502563 800.068909,770.050354 
z"/>
<path fill="#000000" opacity="1.000000" stroke="none" 
	d="
M503.949890,891.683289 
	C508.151123,890.386597 510.037811,891.841614 510.053070,895.847412 
	C510.075287,901.677490 510.374664,907.517761 510.119812,913.334656 
	C509.826691,920.026001 506.172821,923.606506 499.901428,924.041687 
	C492.494781,924.555664 487.631805,921.149841 486.091461,914.734802 
	C484.466278,907.966370 486.135284,901.114685 485.278290,894.332214 
	C484.991699,892.064087 486.575073,891.063416 488.714233,890.996643 
	C491.290680,890.916138 492.932098,892.094543 493.009552,894.752686 
	C493.150177,899.580383 493.218384,904.413696 493.156799,909.242554 
	C493.109741,912.929749 493.837402,916.375854 498.148132,916.428345 
	C502.461243,916.480774 502.694397,912.824890 502.690948,909.515808 
	C502.686462,905.184753 502.634735,900.853699 502.606873,896.522644 
	C502.596405,894.896973 502.061768,893.157043 503.949890,891.683289 
z"/>
<path fill="#000000" opacity="1.000000" stroke="none" 
	d="
M330.704102,893.977600 
	C325.203217,897.391052 320.125763,896.715942 315.510040,893.231628 
	C311.011444,889.835693 309.698364,884.988953 310.473724,879.493652 
	C311.281525,873.768860 313.965698,869.139648 318.586517,865.702393 
	C325.715820,860.399109 336.263977,863.394226 339.371063,871.582336 
	C340.221405,873.823242 340.929901,876.426514 338.151794,877.661194 
	C335.674530,878.762268 333.178833,878.247803 332.089569,875.196289 
	C331.080170,872.368652 328.968750,870.622070 326.131348,870.750244 
	C323.286499,870.878784 321.440674,873.058350 320.342316,875.640686 
	C319.629242,877.317139 318.938080,879.034668 318.531494,880.801575 
	C318.034851,882.960083 318.048218,885.227478 319.965454,886.775330 
	C321.999298,888.417358 324.536102,888.442383 326.486420,887.012146 
	C329.226715,885.002502 331.657013,884.538025 333.722931,887.429138 
	C336.078613,890.725586 332.854218,892.035461 330.704102,893.977600 
z"/>
<path fill="#000000" opacity="1.000000" stroke="none" 
	d="
M311.656433,871.536255 
	C309.462646,876.263000 307.365631,880.614807 305.389984,885.020996 
	C304.181091,887.717224 302.580170,888.960876 299.519257,887.670532 
	C296.419159,886.363708 296.900513,884.497925 298.022614,882.054688 
	C301.284485,874.951965 304.410400,867.786255 307.531891,860.620117 
	C308.657898,858.035095 309.986694,856.335999 313.208923,857.733215 
	C316.471649,859.148010 316.110413,861.184998 314.831635,863.792480 
	C313.661865,866.177612 312.801239,868.714417 311.656433,871.536255 
z"/>
<path fill="#000000" opacity="1.000000" stroke="none" 
	d="
M218.986633,497.884155 
	C214.480804,470.698456 213.461441,443.913177 217.165359,416.912689 
	C220.508118,392.544983 226.375473,368.935974 235.449631,346.083618 
	C244.041779,324.445190 255.298584,304.273773 269.030029,285.536560 
	C296.249512,248.394348 330.615906,219.866989 372.602997,200.700073 
	C413.724030,181.928513 456.734344,172.476883 502.054474,174.737488 
	C549.066406,177.082504 593.173706,189.606461 634.341919,212.557983 
	C669.557495,232.190903 698.625793,258.725159 722.343445,291.088806 
	C748.578186,326.887329 765.220093,366.927277 771.919067,410.786804 
	C778.728638,455.369751 774.672791,499.110901 759.164978,541.611084 
	C746.385254,576.635071 727.068726,607.620544 701.941101,635.165649 
	C681.743896,657.305908 658.416382,675.409912 632.313354,689.796326 
	C598.601624,708.376221 562.744202,720.791443 524.152100,724.273438 
	C495.135986,726.891541 466.367279,725.312073 437.726196,719.704102 
	C389.851685,710.330078 347.834137,689.173401 310.843658,657.704529 
	C274.859131,627.091370 248.716110,589.503662 231.758926,545.443054 
	C225.877197,530.160278 222.149979,514.325439 218.986633,497.884155 
M639.742920,235.792114 
	C621.724854,223.560852 602.204651,214.335785 581.793640,206.914383 
	C562.926819,200.054520 543.399414,196.021347 523.530212,193.505905 
	C500.628754,190.606552 477.687347,190.108932 454.811096,193.422394 
	C433.647369,196.487778 413.144775,202.240860 393.327545,210.291534 
	C369.902496,219.807922 348.022034,232.063248 328.270355,247.926346 
	C310.502136,262.196442 295.431274,278.980133 282.017914,297.383514 
	C263.856506,322.301300 250.844223,349.675537 242.462738,379.234680 
	C234.634933,406.841187 231.940811,435.066162 233.173111,463.740967 
	C234.130188,486.012207 238.269882,507.712616 244.930908,528.850464 
	C253.045670,554.601685 265.751770,578.133362 281.791870,599.869873 
	C296.970184,620.438538 315.020386,638.205139 334.795563,654.265137 
	C337.130920,656.161804 338.206390,659.908325 341.165588,660.223389 
	C344.984009,660.629944 347.636597,662.746582 350.460938,664.631531 
	C361.855988,672.236389 373.910583,678.637268 386.415649,684.127258 
	C413.579285,696.052795 441.829529,703.732178 471.552002,705.955750 
	C494.741089,707.690613 517.784912,707.606873 540.708130,703.325684 
	C578.202820,696.323242 612.738281,682.235229 644.332703,660.752075 
	C671.407227,642.342163 694.189880,619.643677 712.577332,592.704041 
	C737.339966,556.424194 752.433960,516.502747 755.998596,472.452454 
	C758.026855,447.387573 756.696106,422.548065 751.638733,397.938293 
	C744.513672,363.266571 730.035339,331.712616 709.790100,302.873779 
	C691.043518,276.169678 667.914917,253.808838 639.742920,235.792114 
z"/>
<path fill="#000000" opacity="1.000000" stroke="none" 
	d="
M636.030640,544.972900 
	C606.271301,583.585388 567.630859,607.511963 519.713867,613.578674 
	C452.712982,622.061646 397.031281,599.899353 355.137848,546.206848 
	C336.072845,521.772339 325.729034,493.560547 322.536469,462.675201 
	C319.200409,430.402039 323.986633,399.492432 338.442291,370.452087 
	C355.765808,335.650452 381.992004,309.515747 416.943970,292.171295 
	C429.557312,285.912140 442.743927,281.464447 456.311981,277.962646 
	C457.891602,277.554962 459.462738,277.114410 461.699066,276.510529 
	C452.580994,275.276031 448.549744,271.628693 447.025604,263.832611 
	C446.537537,261.336029 446.410278,259.028168 449.810638,258.670258 
	C452.575714,258.379272 455.996002,256.326508 457.146210,260.960876 
	C457.902649,264.008698 459.037781,266.883301 462.748566,265.268097 
	C466.326508,263.710724 464.948914,260.415192 463.886871,257.865570 
	C462.252136,253.941101 458.516541,252.080948 455.083099,250.079895 
	C448.417267,246.194992 442.756531,241.648575 441.229767,233.407715 
	C439.670715,224.992218 444.063751,218.128021 452.217529,216.820862 
	C461.876617,215.272369 468.878052,220.079147 469.995880,228.873108 
	C470.296326,231.236862 469.243317,232.580902 467.226379,232.774277 
	C464.839478,233.003082 462.012604,235.314865 460.067749,231.935165 
	C459.495911,230.941513 459.287903,229.745010 458.841370,228.671310 
	C458.104797,226.900070 456.784058,225.977966 454.879761,226.609146 
	C453.144745,227.184204 452.131409,228.513184 452.225952,230.414093 
	C452.387848,233.668671 454.168732,236.055038 456.701569,237.846252 
	C460.370209,240.440689 464.268738,242.720428 467.852936,245.421432 
	C473.537140,249.705002 476.284027,255.528488 476.263916,262.695099 
	C476.245544,269.235718 472.659607,273.125183 466.614410,275.496643 
	C475.111145,274.899445 483.190247,274.331604 491.835266,273.723969 
	C483.920959,272.233887 481.606476,266.354126 480.956207,259.996368 
	C479.890167,249.573624 479.394379,239.078461 479.056610,228.600998 
	C478.877625,223.048553 480.416718,217.683472 486.223969,215.468063 
	C491.985626,213.270096 498.017029,212.699982 503.281372,217.037827 
	C508.215668,221.103683 508.565338,226.762695 508.157257,232.566757 
	C507.953552,235.463898 505.720367,235.229156 503.709625,235.290848 
	C501.130341,235.369965 498.509064,235.472397 497.934692,232.064713 
	C497.686798,230.593674 497.794464,229.060684 497.523102,227.596146 
	C497.151520,225.590942 495.968109,224.232742 493.770599,224.324661 
	C491.567169,224.416809 490.455383,225.844025 490.371155,227.909042 
	C490.283203,230.065582 490.410431,232.237259 490.549133,234.395554 
	C491.071899,242.530334 491.637939,250.662323 492.186981,258.795441 
	C492.353668,261.264648 492.768433,263.818695 495.978943,263.501160 
	C498.840454,263.218109 499.670288,261.033905 499.299683,258.344513 
	C499.163300,257.354919 499.095398,256.355743 499.002838,255.360306 
	C498.720825,252.326416 498.668030,249.758804 503.022644,249.642456 
	C506.689941,249.544449 509.411957,249.373276 509.759583,254.314407 
	C510.157867,259.974457 510.122192,265.360107 506.343872,269.943909 
	C503.836212,272.986145 500.121765,273.593384 496.411316,274.379425 
	C509.353699,273.919861 521.932739,276.080719 534.421326,279.029938 
	C564.210693,286.064789 590.437561,299.835022 613.166016,320.343842 
	C628.663147,334.327576 641.386230,350.484741 650.823486,369.070068 
	C659.852783,386.852203 665.652649,405.675598 668.137207,425.565430 
	C672.383789,459.561432 665.611450,491.480499 650.593933,521.879700 
	C646.613525,529.936951 641.499756,537.379639 636.030640,544.972900 
M488.673584,603.715820 
	C511.243073,604.392029 533.079529,600.878235 554.185181,592.690125 
	C592.939514,577.655090 621.880432,551.589355 640.815674,514.766418 
	C657.573364,482.178223 661.283691,447.587860 654.009399,411.807831 
	C650.079163,392.476471 642.023926,374.819244 631.154907,358.421173 
	C616.128174,335.750183 596.448792,318.143555 572.630310,305.153412 
	C553.679260,294.817810 533.311096,289.101959 511.916840,286.501160 
	C494.204468,284.347870 476.551758,284.640289 459.293243,288.737396 
	C417.950897,298.551880 384.701508,320.661560 360.452972,355.885101 
	C337.263092,389.570801 329.304993,426.992157 334.623871,467.040192 
	C338.581604,496.839691 350.611542,523.474731 370.402527,546.498718 
	C401.334564,582.483704 440.724884,600.818848 488.673584,603.715820 
z"/>
<path fill="#000000" opacity="1.000000" stroke="none" 
	d="
M685.863525,399.972656 
	C693.886108,394.565002 701.597290,389.364319 709.298828,384.149323 
	C709.367920,384.102570 709.307434,383.864441 709.307434,383.171600 
	C700.709595,386.132690 692.242310,388.964020 683.843262,391.984894 
	C680.671570,393.125641 678.213684,393.735382 676.864014,389.501648 
	C675.688599,385.814362 676.136292,383.815125 680.248901,382.470215 
	C696.200378,377.253754 712.071411,371.784271 727.899048,366.201141 
	C731.341248,364.986938 732.658203,366.153839 733.828247,369.177704 
	C736.889404,377.088928 736.972961,377.032898 729.817078,381.697571 
	C725.257812,384.669647 720.741638,387.707825 716.639099,391.641968 
	C722.715027,389.595734 728.870850,387.754913 734.839478,385.432831 
	C738.989563,383.818298 740.365051,385.704956 741.802917,389.147766 
	C743.502686,393.217804 741.111267,394.075043 738.209045,395.050995 
	C722.772888,400.241425 707.349243,405.469208 691.920837,410.682587 
	C689.552185,411.482971 686.824829,413.874878 685.087830,410.164215 
	C683.570618,406.923035 680.615784,403.262939 685.863525,399.972656 
z"/>
<path fill="#000000" opacity="1.000000" stroke="none" 
	d="
M314.386414,547.413025 
	C305.617645,552.543335 297.279724,557.713745 288.639771,562.317261 
	C280.189148,566.819946 272.282043,564.216187 267.879791,556.099304 
	C263.748901,548.482727 266.057983,540.234924 273.974335,535.683655 
	C284.054718,529.888245 294.234222,524.255737 304.498566,518.792725 
	C312.994110,514.271118 320.442963,516.582886 324.718750,524.681458 
	C328.997375,532.785400 326.746887,540.218750 318.574493,544.967407 
	C317.281250,545.718872 315.981689,546.459351 314.386414,547.413025 
M297.683258,535.264038 
	C291.737793,538.604919 285.756989,541.885132 279.866730,545.320679 
	C277.901855,546.466736 276.447083,548.205872 277.578430,550.718567 
	C278.717407,553.248291 281.061646,553.540649 283.068268,552.412720 
	C293.347717,546.634216 303.539185,540.696533 313.683960,534.683838 
	C315.279022,533.738464 316.403778,532.043152 315.200653,529.992798 
	C314.022308,527.984741 312.280334,527.280212 310.121918,528.434509 
	C306.166229,530.549988 302.247498,532.734619 297.683258,535.264038 
z"/>
<path fill="#000000" opacity="1.000000" stroke="none" 
	d="
M296.007294,357.262573 
	C300.073792,355.730682 303.541931,356.905640 306.978363,358.262604 
	C311.306335,359.971710 315.612579,361.735931 319.942078,363.441071 
	C322.199371,364.330048 325.223785,364.564301 323.417175,368.366058 
	C321.855682,371.651947 320.896881,375.763367 315.741028,373.808167 
	C311.545532,372.217133 307.478027,370.275269 303.245911,368.798035 
	C299.671478,367.550446 296.012482,366.923584 294.459259,372.418121 
	C299.756531,375.494019 305.423035,377.336548 310.917999,379.551544 
	C316.791565,381.919128 317.264557,383.431488 314.311920,388.758240 
	C312.914856,391.278656 311.213409,392.000549 308.593384,390.900177 
	C292.502014,384.142181 276.406342,377.394318 260.302277,370.666534 
	C257.566711,369.523682 256.975037,367.823730 258.315094,365.143250 
	C260.170013,361.433105 261.697876,357.559082 263.561646,353.853821 
	C266.942505,347.132538 272.451569,345.147308 279.793671,347.056305 
	C286.327667,348.755249 291.062531,352.857697 296.007294,357.262573 
M271.396210,361.646576 
	C274.098907,366.065033 278.869904,366.676270 283.228455,367.497406 
	C285.244720,367.877289 286.233154,365.247101 285.516907,363.435089 
	C284.051849,359.728668 280.183960,359.353149 276.987701,358.128906 
	C274.104034,357.024445 272.674255,358.742645 271.396210,361.646576 
z"/>
<path fill="#000000" opacity="1.000000" stroke="none" 
	d="
M721.653564,485.507477 
	C713.197327,484.095062 705.131104,482.950592 697.145508,481.392670 
	C688.838013,479.771942 685.632874,475.578430 685.721008,467.090363 
	C685.741638,465.107269 686.001160,463.112885 686.310608,461.148895 
	C687.994202,450.463440 688.032104,450.323669 698.554688,451.853485 
	C713.851257,454.077423 729.108459,456.571320 744.397095,458.851776 
	C747.335754,459.290070 748.499146,460.784821 748.111267,463.588257 
	C747.474365,468.192780 746.990784,472.835297 746.028381,477.373962 
	C744.713196,483.576324 738.182983,487.603149 730.958435,486.898834 
	C727.984436,486.608887 725.038025,486.037262 721.653564,485.507477 
M723.648926,467.068665 
	C716.292725,465.885651 708.947388,464.627350 701.573059,463.570679 
	C699.646362,463.294556 696.966370,462.155212 696.310425,465.434509 
	C695.650574,468.733704 697.467346,470.382660 700.579651,470.875153 
	C705.491028,471.652344 710.397522,472.461487 715.314209,473.203491 
	C720.715027,474.018585 726.124390,474.777161 731.531189,475.552002 
	C734.320435,475.951721 736.126282,474.731140 736.530090,471.993103 
	C736.982666,468.924957 734.600708,468.583130 732.399475,468.261688 
	C729.773438,467.878174 727.141235,467.537018 723.648926,467.068665 
z"/>
<path fill="#000000" opacity="1.000000" stroke="none" 
	d="
M723.079712,528.973145 
	C709.067200,525.542358 696.032349,520.484253 683.264648,514.835571 
	C675.907715,511.580750 674.110901,504.382660 677.435730,495.602448 
	C679.921509,489.038300 686.482056,485.436676 693.561157,487.463928 
	C705.720215,490.945923 717.508850,495.573181 729.146729,500.484589 
	C735.670105,503.237610 739.091675,509.999603 737.910645,515.724304 
	C736.118103,524.413452 732.175293,528.042969 723.079712,528.973145 
M726.762878,513.623596 
	C726.483582,511.742401 725.205811,510.787781 723.566589,510.151337 
	C713.341492,506.181213 703.163635,502.086609 692.647644,498.909302 
	C690.151550,498.155121 687.831299,498.052856 686.730408,500.766296 
	C685.503235,503.790802 687.967224,505.051666 690.131348,505.854248 
	C700.572266,509.726349 711.063782,513.463013 721.556335,517.194336 
	C724.243774,518.150024 726.123352,517.320312 726.762878,513.623596 
z"/>
<path fill="#000000" opacity="1.000000" stroke="none" 
	d="
M701.563599,572.426880 
	C696.461243,559.990479 688.536133,551.745605 674.806763,549.826721 
	C669.453003,549.078552 664.306335,546.670105 659.147827,544.791504 
	C657.131165,544.057068 653.427856,544.719177 654.340454,540.650513 
	C655.375977,536.033936 659.514160,533.195984 663.338623,534.370239 
	C668.749084,536.031372 674.115845,537.834045 679.511230,539.545227 
	C680.576294,539.883057 681.685852,540.080811 683.142700,540.431763 
	C682.993713,537.369812 681.140076,535.994629 679.282410,534.687134 
	C676.151123,532.483337 672.916809,530.424072 669.814514,528.181396 
	C665.590576,525.127991 666.038147,519.386719 670.568848,516.788269 
	C672.100159,515.910034 673.071716,516.834106 674.162598,517.562500 
	C689.255737,527.640381 704.315125,537.769287 719.465149,547.760803 
	C722.821228,549.974182 722.288513,552.064636 720.193542,554.715942 
	C718.286133,557.130127 717.185669,560.604370 713.003601,557.243835 
	C709.408752,554.355225 705.316284,552.085999 701.443848,549.542908 
	C701.067688,549.806213 700.691528,550.069519 700.315369,550.332825 
	C702.548401,554.189209 704.759766,558.058350 707.019104,561.899231 
	C711.281616,569.145386 711.200500,569.830811 705.098145,575.921265 
	C702.996033,575.937195 702.619751,574.069275 701.563599,572.426880 
z"/>
<path fill="#000000" opacity="1.000000" stroke="none" 
	d="
M321.920746,576.929565 
	C326.410461,572.687317 330.641907,568.689453 334.810059,564.626648 
	C336.458221,563.020142 337.593079,561.148682 335.895416,558.908020 
	C334.038391,556.457031 331.649261,557.065247 329.691467,558.490173 
	C327.154663,560.336487 324.923187,562.607422 322.599731,564.738464 
	C321.959625,565.325623 321.574524,566.193115 322.128296,566.978821 
	C325.278015,571.447632 321.058441,572.936401 318.703186,574.698364 
	C315.553467,577.054688 313.975464,573.734375 312.233795,571.997314 
	C305.963928,565.743835 306.010681,564.783569 313.128784,559.514099 
	C316.500488,557.018066 319.323914,553.982910 322.330719,551.118530 
	C328.996216,544.768799 336.780304,544.492126 342.765808,550.361755 
	C349.870850,557.329224 350.486511,564.962708 343.578369,571.795837 
	C334.601044,580.675659 325.222534,589.171082 315.708313,597.478760 
	C310.161133,602.322571 302.005493,601.600891 297.101471,596.574280 
	C290.769440,590.083923 290.035095,582.767212 295.137329,576.412109 
	C296.070221,575.250061 297.240753,574.282104 298.250702,573.178040 
	C300.639221,570.566711 302.731018,569.104919 306.046600,572.471069 
	C309.283630,575.757507 309.476288,578.098572 305.861084,581.007935 
	C303.739868,582.715027 301.660461,585.169983 304.226929,587.749878 
	C306.701599,590.237366 309.131622,588.192932 311.186737,586.400757 
	C314.693176,583.342896 318.155975,580.234924 321.920746,576.929565 
z"/>
<path fill="#000000" opacity="1.000000" stroke="none" 
	d="
M517.454956,252.518051 
	C519.060120,241.548782 520.624329,231.017227 522.075378,220.470078 
	C522.819824,215.058975 526.724243,217.058823 529.774170,217.015656 
	C533.367310,216.964783 533.783081,219.187653 533.351135,222.041763 
	C532.654419,226.644943 531.938538,231.246414 531.338684,235.862625 
	C531.022034,238.299316 531.026245,240.526352 534.495117,240.850235 
	C537.549988,241.135437 538.681030,239.802887 539.074707,237.015778 
	C539.726135,232.404892 540.604370,227.826553 541.335938,223.226379 
	C542.126160,218.257141 545.847534,219.855087 548.764771,219.984192 
	C552.006104,220.127655 552.823059,222.041550 552.338257,225.137772 
	C549.815186,241.251785 547.389648,257.381378 545.015137,273.518066 
	C544.462402,277.274536 542.609741,278.721619 538.850708,278.006256 
	C535.350281,277.340088 532.875122,276.200195 533.721069,271.816803 
	C534.760376,266.431366 535.404724,260.970856 536.336670,255.562927 
	C536.720337,253.335831 536.749817,251.639267 533.918518,251.138153 
	C531.351746,250.683899 529.199219,250.618576 528.672668,253.868027 
	C527.820618,259.126099 526.904663,264.375671 526.168945,269.650177 
	C525.590027,273.800354 523.947205,275.897522 519.233093,275.050507 
	C514.506470,274.201172 514.409058,271.399567 515.043335,267.737579 
	C515.894775,262.821442 516.599487,257.879944 517.454956,252.518051 
z"/>
<path fill="#000000" opacity="1.000000" stroke="none" 
	d="
M734.335938,426.212646 
	C723.446594,426.547180 712.982666,426.919556 702.520996,427.348694 
	C701.375183,427.395691 700.218567,427.686096 699.109741,428.009949 
	C697.380371,428.515106 696.059509,429.479279 696.336426,431.550995 
	C696.591736,433.461273 697.938721,434.875549 699.663757,434.651947 
	C704.141663,434.071503 709.552917,437.250244 712.758789,430.846313 
	C713.913269,428.540131 717.717896,429.388611 720.239380,429.883789 
	C722.480774,430.323944 722.107300,432.720032 722.266235,434.495880 
	C723.187500,444.793121 723.181641,444.818665 712.561035,445.111481 
	C707.904541,445.239899 703.236389,445.444122 698.587952,445.256622 
	C691.171875,444.957581 686.662781,440.089417 685.815491,431.887482 
	C685.033997,424.322479 688.276184,418.870270 695.759521,417.574554 
	C709.041565,415.274841 722.557800,414.460876 735.998657,415.202972 
	C745.048767,415.702637 749.797058,423.368744 748.276245,432.830139 
	C747.073059,440.315399 739.147278,445.360931 730.881470,444.030457 
	C726.545776,443.332581 728.069275,439.835815 727.491089,437.346924 
	C726.877563,434.705627 728.202454,433.703339 730.696594,433.622833 
	C731.848206,433.585693 732.999573,433.307281 734.135132,433.063904 
	C735.789917,432.709290 737.476929,432.325439 737.666443,430.178101 
	C737.856079,428.029785 736.964233,426.654175 734.335938,426.212646 
z"/>
<path fill="#000000" opacity="1.000000" stroke="none" 
	d="
M629.238892,261.839966 
	C623.671692,272.320618 618.434814,282.539673 612.739685,292.496521 
	C608.140686,300.536957 600.684204,302.311768 592.689148,297.873352 
	C584.841797,293.516968 582.512695,286.547516 586.723511,278.446350 
	C591.707031,268.858612 596.814026,259.311768 602.393799,250.064774 
	C606.631653,243.041626 613.065918,241.510178 620.507690,244.752792 
	C628.127197,248.072845 631.106140,253.689728 629.238892,261.839966 
M615.330994,264.892395 
	C615.960388,263.720337 616.647217,262.574951 617.206848,261.370453 
	C618.246033,259.133820 619.950684,256.609314 616.900269,254.807648 
	C613.718567,252.928391 611.952637,255.361038 610.609070,257.763580 
	C605.905396,266.174744 601.200684,274.588287 596.700867,283.108917 
	C594.879578,286.557617 596.166748,289.303772 599.269348,289.518890 
	C601.711060,289.688141 602.799377,287.834717 603.756226,286.117249 
	C607.557617,279.293701 611.251526,272.410309 615.330994,264.892395 
z"/>
<path fill="#000000" opacity="1.000000" stroke="none" 
	d="
M553.556030,264.702942 
	C556.862244,255.586899 560.027344,246.848984 563.264526,238.137878 
	C566.595093,229.175400 573.227051,225.658432 581.561646,228.350006 
	C590.929260,231.375198 594.604919,237.763855 591.587158,247.325195 
	C588.545593,256.962036 585.046509,266.481659 581.216003,275.834778 
	C577.269775,285.470490 570.277100,288.280212 561.226013,284.613037 
	C552.681824,281.151215 550.172424,274.854645 553.556030,264.702942 
M581.411377,242.374619 
	C581.550415,239.964905 580.340515,238.617905 578.030090,238.288269 
	C575.792297,237.968994 574.639160,239.409103 573.981934,241.229080 
	C570.493652,250.888184 567.043884,260.561371 563.628601,270.246552 
	C562.870178,272.397339 563.417786,274.249481 565.590454,275.242493 
	C567.978149,276.333740 569.307861,274.812897 570.387451,272.983093 
	C570.807251,272.271576 571.201294,271.526825 571.476562,270.750885 
	C574.745361,261.536407 577.989563,252.313217 581.411377,242.374619 
z"/>
<path fill="#000000" opacity="1.000000" stroke="none" 
	d="
M259.367065,508.489563 
	C257.648804,508.825684 256.340210,509.074615 255.034210,509.336517 
	C249.636566,510.419067 248.666763,509.653503 247.692352,504.438812 
	C247.175507,501.672913 248.128448,500.352692 250.727768,499.832092 
	C268.658936,496.240845 286.590790,492.652771 304.512817,489.016510 
	C307.542236,488.401825 309.118530,489.566986 310.096100,492.438599 
	C313.160889,501.441101 313.188293,501.341736 304.981079,505.712524 
	C290.588104,513.377502 276.258789,521.161865 261.880310,528.854187 
	C259.775452,529.980286 257.078674,532.119751 255.733093,528.398254 
	C254.645050,525.388977 251.413635,521.689636 256.656189,519.017456 
	C265.839661,514.336609 274.973389,509.558075 284.123474,504.811798 
	C284.543610,504.593872 284.919678,504.291046 285.122040,503.134949 
	C276.673981,504.892761 268.225952,506.650543 259.367065,508.489563 
z"/>
<path fill="#000000" opacity="1.000000" stroke="none" 
	d="
M269.322144,387.748718 
	C268.242432,392.213318 267.641083,396.659241 261.362305,394.417114 
	C259.591156,393.784668 258.249603,395.336823 257.702728,397.075134 
	C257.122009,398.921082 258.470978,399.803497 259.782898,400.591431 
	C263.656219,402.917694 267.217010,401.288208 270.644897,399.518280 
	C274.922119,397.309753 278.743622,394.336426 283.289398,392.513702 
	C290.289001,389.707184 296.782471,390.976501 302.871643,394.594086 
	C309.544739,398.558563 310.696442,407.705322 305.898590,415.429565 
	C302.489716,420.917664 292.976868,423.099670 287.075104,419.889099 
	C284.938385,418.726715 284.751251,417.182037 285.683868,415.334839 
	C286.705261,413.311829 286.059235,409.957123 289.752563,409.946838 
	C290.081665,409.945923 290.419708,410.004547 290.738892,410.090302 
	C293.417908,410.810303 296.024170,411.284607 297.832428,408.375671 
	C298.522217,407.265991 298.637665,406.156860 297.736237,405.157288 
	C295.537506,402.719299 292.706421,401.871490 289.581635,402.540924 
	C284.080841,403.719360 279.760010,407.368378 274.953003,409.968323 
	C267.953369,413.754211 261.035492,414.099854 253.949783,410.516846 
	C246.546997,406.773529 244.588745,398.584778 249.068237,390.306458 
	C252.515625,383.935486 261.533844,381.200775 267.759216,384.579865 
	C268.950531,385.226562 269.454773,386.090485 269.322144,387.748718 
z"/>
<path fill="#000000" opacity="1.000000" stroke="none" 
	d="
M369.716553,252.812531 
	C370.271515,243.758392 375.804077,238.457138 384.934937,237.783798 
	C391.462006,237.302460 398.561005,243.300064 400.262665,250.565521 
	C401.060730,253.973007 398.347870,254.343338 396.406433,255.366577 
	C394.518890,256.361420 392.502380,257.775055 390.798340,255.047424 
	C390.093536,253.919281 389.547882,252.676239 388.742035,251.630127 
	C387.343597,249.814606 386.015503,247.490891 383.111542,249.151978 
	C380.251038,250.788208 381.272064,253.110977 382.352356,255.220627 
	C385.536682,261.439117 388.824768,267.604462 392.074921,273.789215 
	C393.544495,276.585785 395.004547,279.387573 396.498596,282.171112 
	C397.675812,284.364380 399.475555,285.480255 401.853729,284.330505 
	C404.400177,283.099426 404.041809,280.898193 403.106781,278.745758 
	C402.710022,277.832397 402.278168,276.909821 401.707184,276.100891 
	C399.168671,272.504364 399.454773,270.209961 403.862122,267.996887 
	C408.406830,265.714844 409.847809,268.012634 411.341492,271.352783 
	C411.816681,272.415375 412.364594,273.445221 412.865662,274.496521 
	C416.777405,282.704193 414.963684,289.220062 407.660889,293.208099 
	C399.386627,297.726624 391.495941,295.834106 387.113373,287.939392 
	C381.785400,278.341675 376.691620,268.612518 371.609314,258.881317 
	C370.703827,257.147552 370.347504,255.127045 369.716553,252.812531 
z"/>
<path fill="#000000" opacity="1.000000" stroke="none" 
	d="
M323.406403,291.423767 
	C321.006439,290.941162 319.317444,291.575500 318.628845,293.587555 
	C317.914948,295.673431 319.499817,296.985382 320.802673,298.263855 
	C323.275604,300.690430 326.473816,300.836609 329.656647,300.950409 
	C334.307922,301.116730 338.985229,300.683929 343.597290,301.703491 
	C347.913422,302.657593 351.748840,304.388458 354.930756,307.601074 
	C361.661469,314.396759 362.099274,322.858948 355.877716,328.775299 
	C348.866638,335.442444 340.519287,335.281372 333.815063,328.361053 
	C332.239746,326.734955 330.469543,324.798981 332.841980,322.918365 
	C334.972229,321.229767 336.569916,316.940033 340.597839,320.142395 
	C341.505585,320.864075 342.453522,321.558746 343.462189,322.124603 
	C345.109009,323.048431 346.701141,322.910767 347.937561,321.380707 
	C349.142609,319.889313 349.065125,318.307495 347.924805,316.795258 
	C345.532532,313.622803 342.194702,312.431366 338.365448,312.199799 
	C333.059357,311.878845 327.708313,312.553009 322.438507,311.335846 
	C318.426727,310.409241 314.954407,308.565125 312.082886,305.647308 
	C305.922821,299.387848 305.882690,291.925781 311.915405,285.294159 
	C317.517273,279.136169 325.348206,278.626617 331.858246,284.250885 
	C333.504089,285.672760 336.741302,287.304596 333.829071,290.196869 
	C331.610596,292.400177 329.637512,296.730804 325.446777,292.575409 
	C324.988007,292.120483 324.317627,291.878967 323.406403,291.423767 
z"/>
<path fill="#000000" opacity="1.000000" stroke="none" 
	d="
M368.111694,297.762878 
	C369.385254,299.028931 369.863190,300.650146 371.806915,301.098724 
	C374.762268,298.996887 377.917999,296.854370 380.959839,294.560883 
	C384.065186,292.219482 385.706818,294.098450 387.434418,296.451538 
	C389.253845,298.929596 389.971863,301.040894 386.851349,303.140961 
	C381.884125,306.483887 376.853943,309.778595 372.203339,313.531128 
	C368.962280,316.146301 367.090515,315.328766 364.900360,312.386932 
	C358.054474,303.191437 351.071075,294.098297 344.138458,284.967377 
	C340.818420,280.594604 337.642578,276.100342 334.115448,271.901306 
	C331.886627,269.247864 332.436157,267.640289 335.044495,265.868378 
	C340.274811,262.315338 345.494385,258.733978 350.545380,254.934326 
	C353.406281,252.782196 355.008514,253.977936 356.624512,256.362915 
	C358.212555,258.706543 360.332275,260.699951 356.668396,263.367035 
	C353.743439,265.496216 350.282990,266.988342 348.007324,269.818512 
	C347.714783,271.477478 348.769775,272.471039 349.464996,273.547607 
	C354.393127,281.178497 354.457367,281.234650 361.722809,276.067566 
	C364.405060,274.160004 366.347015,273.980896 368.301453,277.030151 
	C370.048004,279.755096 371.804413,282.169861 367.787903,284.402679 
	C366.776978,284.964661 365.944641,285.846832 364.935638,286.413574 
	C361.698669,288.231842 361.899780,290.298950 364.207153,292.787689 
	C365.558563,294.245270 366.671600,295.923828 368.111694,297.762878 
z"/>
<path fill="#000000" opacity="1.000000" stroke="none" 
	d="
M304.242157,465.853088 
	C304.388031,469.576202 301.945496,469.923706 299.604401,470.278717 
	C286.310211,472.294800 273.026154,474.388367 259.705017,476.209656 
	C255.487762,476.786224 252.749771,477.620941 254.076050,482.903015 
	C255.089584,486.939484 251.753555,487.319397 248.854980,487.738098 
	C245.908234,488.163727 244.032272,487.358673 243.700653,484.026886 
	C242.944000,476.425201 242.113785,468.829559 241.195496,461.245789 
	C240.714203,457.271027 243.765686,457.591431 246.038284,457.138977 
	C248.305038,456.687683 251.063446,456.092773 251.283218,459.678955 
	C251.633148,465.388336 254.397858,466.017975 259.562469,465.090088 
	C271.964874,462.861877 284.495544,461.341095 296.982819,459.594421 
	C303.418213,458.694275 303.426239,458.751740 304.242157,465.853088 
z"/>
<path fill="#000000" opacity="1.000000" stroke="none" 
	d="
M676.932739,331.881165 
	C685.175232,327.122742 693.188843,322.685638 700.959656,317.857574 
	C705.156494,315.250031 706.365295,317.979401 708.205872,320.767456 
	C710.264404,323.885651 709.654114,325.700043 706.468872,327.521667 
	C695.060852,334.045990 683.851746,340.921875 672.377197,347.323914 
	C668.730164,349.358765 668.465210,351.269012 670.735291,354.296722 
	C671.631226,355.491699 672.249268,356.898560 673.169312,358.071228 
	C676.017273,361.701141 674.471802,364.022614 671.121155,366.139984 
	C667.650757,368.333008 666.129089,366.440155 664.486206,363.663544 
	C661.691223,358.939972 658.727417,354.306488 655.628723,349.775940 
	C653.632263,346.856995 654.249390,345.032898 657.197449,343.361633 
	C663.711731,339.668549 670.139526,335.822998 676.932739,331.881165 
z"/>
<path fill="#000000" opacity="1.000000" stroke="none" 
	d="
M634.518616,293.481323 
	C631.512024,297.668427 627.953247,301.021057 625.785889,305.455170 
	C627.578674,308.605194 630.784851,309.885651 633.416809,311.812378 
	C635.726074,313.502869 637.149292,315.151367 634.771240,317.880280 
	C632.867615,320.064819 631.616455,323.340332 627.763306,320.340057 
	C622.912231,316.562836 617.876038,313.022186 612.893677,309.415497 
	C610.899353,307.971893 610.514404,306.388550 612.067688,304.364105 
	C622.486023,290.785431 632.834473,277.152771 643.319458,263.625824 
	C646.651794,259.326660 649.125000,263.456848 651.708496,264.938690 
	C654.528076,266.555939 653.807495,268.599304 652.132385,270.741608 
	C646.300354,278.200287 640.528198,285.705811 634.518616,293.481323 
z"/>
<path fill="#000000" opacity="1.000000" stroke="none" 
	d="
M721.752197,356.916199 
	C707.280457,363.780090 693.116394,370.428864 679.013428,377.204773 
	C675.401611,378.940094 672.815735,379.475769 670.650085,374.916870 
	C668.729370,370.873413 669.580200,368.938263 673.425964,367.170868 
	C687.943787,360.498871 702.436340,353.764984 716.807068,346.783997 
	C720.867981,344.811279 723.050293,344.930115 725.320068,349.384674 
	C727.620911,353.900024 725.607544,355.377197 721.752197,356.916199 
z"/>
<path fill="#000000" opacity="1.000000" stroke="none" 
	d="
M632.556885,335.387299 
	C629.784302,336.082550 628.248779,334.838562 627.623352,332.763000 
	C627.039307,330.824707 628.993530,330.158661 630.239014,329.697296 
	C634.634949,328.068970 634.276245,322.935150 637.713013,320.257263 
	C641.940674,316.963135 643.175964,320.377655 645.434631,322.107178 
	C648.160339,324.194397 647.428772,326.002777 645.347900,328.245880 
	C641.901611,331.960907 637.276062,333.342285 632.556885,335.387299 
z"/>
<path fill="#000000" opacity="1.000000" stroke="none" 
	d="
M319.944580,354.220703 
	C324.257355,346.938751 325.386047,346.600647 330.530884,350.294006 
	C332.488464,351.699280 333.415894,353.270264 331.703705,355.229004 
	C329.926361,357.262268 329.391479,361.624084 325.261078,359.887939 
	C322.984131,358.930817 320.283875,357.735718 319.944580,354.220703 
z"/>
<path fill="#000000" opacity="1.000000" stroke="none" 
	d="
M422.802612,274.733948 
	C427.110657,272.108215 429.737915,272.848724 431.408173,277.469299 
	C432.425537,280.283783 432.469818,282.270691 429.344635,283.381226 
	C426.916656,284.244019 424.055603,287.153320 422.260468,283.060669 
	C421.179291,280.595734 417.199677,277.424072 422.802612,274.733948 
z"/>
<path fill="#000000" opacity="1.000000" stroke="none" 
	d="
M292.560455,446.015076 
	C293.840668,442.322540 298.169708,440.566895 301.171539,442.111786 
	C303.060516,443.083923 304.285309,448.824646 302.655426,450.651947 
	C300.227264,453.374146 296.778473,452.753174 293.947144,451.788757 
	C291.834351,451.069122 292.896118,448.289490 292.560455,446.015076 
z"/>
<path fill="#000000" opacity="1.000000" stroke="none" 
	d="
M585.797729,349.859131 
	C591.477966,350.143585 592.705261,354.933502 594.677795,358.235138 
	C597.394226,362.781799 600.778625,364.208984 605.740723,363.813049 
	C609.713745,363.496002 613.735291,363.838531 617.732544,363.756287 
	C620.735657,363.694519 622.284851,364.758453 622.528931,368.010803 
	C623.226257,377.301056 624.359924,386.560059 624.982178,395.854095 
	C627.517212,433.720673 629.862244,471.600128 632.464600,509.461945 
	C632.768921,513.889771 631.617798,515.385193 627.099060,515.270508 
	C598.137329,514.535400 569.170532,514.003296 540.205200,513.410950 
	C532.074585,513.244690 524.206604,513.473816 516.462952,517.172546 
	C506.979645,521.702209 496.518585,521.877869 486.684784,518.571960 
	C478.659546,515.874146 471.017609,516.731506 463.111938,517.778992 
	C438.864136,520.991821 414.605896,524.126526 390.358856,527.345276 
	C384.751678,528.089600 379.161346,528.980103 373.585266,529.931946 
	C370.231323,530.504456 368.670929,529.517761 368.537750,525.864990 
	C368.125458,514.555725 367.373535,503.259247 366.926727,491.950928 
	C366.111481,471.318359 365.628418,450.670624 364.609680,430.048798 
	C363.845612,414.583069 362.855682,399.133911 362.500610,383.645752 
	C362.403595,379.415009 363.607117,377.528839 367.842468,377.264313 
	C371.315338,377.047394 374.805023,375.737122 378.203583,375.998749 
	C383.930756,376.439545 386.914368,373.699249 388.493073,368.797913 
	C390.792572,361.658600 395.885345,358.770447 402.992554,357.070984 
	C418.760956,353.300568 434.649170,350.526550 450.813965,350.015594 
	C465.624451,349.547455 479.816681,351.853149 490.624634,363.602020 
	C491.160675,364.184692 491.937317,364.546021 492.892883,365.213776 
	C502.618317,351.254852 517.271179,348.324036 532.688416,346.695251 
	C550.460815,344.817596 567.909607,347.268188 585.797729,349.859131 
M416.675446,476.986938 
	C421.905914,476.025238 427.129272,475.022949 432.368195,474.109802 
	C446.040070,471.726746 459.757904,470.535095 473.572937,472.835052 
	C480.792297,474.036926 487.430847,476.961395 494.114410,480.606689 
	C495.286102,476.352661 494.728027,472.705627 494.532471,469.118225 
	C493.029327,441.545593 491.275238,413.985535 489.945465,386.404877 
	C489.092163,368.705811 480.425018,358.934601 462.710419,357.422272 
	C443.562866,355.787598 424.910217,359.092224 406.464081,363.915619 
	C403.799988,364.612244 402.647186,366.020111 402.778107,368.898376 
	C404.033417,396.494293 405.020325,424.103821 406.500610,451.687134 
	C406.893158,459.001709 407.187866,466.309509 407.373749,473.626617 
	C407.459839,477.016815 408.381744,479.255249 412.460663,477.895508 
	C413.554718,477.530823 414.737701,477.432892 416.675446,476.986938 
M527.674377,354.196045 
	C523.789795,355.109985 519.845703,355.826202 516.031311,356.973480 
	C502.500488,361.043335 496.609833,369.703644 497.376343,383.868134 
	C498.752411,409.296051 500.040588,434.728729 501.419037,460.156525 
	C501.774963,466.722321 502.330048,473.277374 502.794342,479.846771 
	C505.516815,479.766693 506.738770,478.257874 508.167938,477.201660 
	C513.895874,472.968262 520.268372,470.119080 527.241516,468.907379 
	C545.254944,465.777252 563.361267,465.951813 581.482178,467.905090 
	C589.158020,468.732483 589.144470,468.765442 588.610840,460.905304 
	C587.619141,446.297729 586.605591,431.691528 585.665649,417.080566 
	C584.618591,400.805054 583.684509,384.522247 582.623413,368.247681 
	C581.854797,356.458832 581.798096,356.463257 569.875366,354.906891 
	C569.380249,354.842255 568.893250,354.705170 568.397156,354.659241 
	C555.126404,353.430023 541.854187,352.263611 527.674377,354.196045 
M600.494751,501.170776 
	C575.171387,501.099579 549.847900,501.055878 524.524780,500.928223 
	C520.607727,500.908478 517.131653,501.726929 513.577759,503.585724 
	C505.041534,508.050354 495.882935,508.606689 486.976318,505.074219 
	C482.383545,503.252686 477.948486,502.857208 473.325562,503.452759 
	C445.438019,507.045624 417.562988,510.727112 389.583344,513.565491 
	C383.375916,514.195251 383.176178,514.163879 382.903900,507.854126 
	C381.985168,486.562439 380.565552,465.280396 380.205902,443.979980 
	C379.864014,423.734070 376.143829,403.492645 379.378845,383.208496 
	C370.235382,382.952667 370.000122,383.295624 370.373932,390.569672 
	C371.441742,411.348450 372.313446,432.137329 373.271240,452.921814 
	C374.175262,472.539459 374.988708,492.162048 376.043671,511.771606 
	C376.577148,521.687561 376.812561,521.950439 386.771362,520.716492 
	C411.041626,517.709167 435.267700,514.346313 459.531647,511.285797 
	C469.642059,510.010498 479.625061,507.673187 489.875641,512.136169 
	C497.043243,515.256897 505.293823,515.046631 512.198242,511.127808 
	C521.068665,506.093201 530.394714,506.665253 539.821289,506.774841 
	C565.969727,507.078888 592.118286,507.400177 618.264221,507.860748 
	C622.481384,507.935028 624.349182,506.816101 623.962646,502.195709 
	C623.241455,493.573792 623.120605,484.903595 622.529724,476.268524 
	C620.292175,443.568512 617.924622,410.877411 615.705017,378.176208 
	C615.201538,370.758850 611.903687,368.790070 604.618225,372.517853 
	C608.378418,376.050812 608.690369,380.768524 609.048096,385.387970 
	C609.587769,392.355865 609.788452,399.349365 610.266968,406.322754 
	C611.451782,423.589325 612.755615,440.847748 613.928467,458.115082 
	C614.774414,470.570862 615.421631,483.040344 616.295959,495.493958 
	C616.578552,499.518707 615.222473,501.439087 610.986694,501.176636 
	C607.833984,500.981293 604.658081,501.160400 600.494751,501.170776 
M429.541870,501.785126 
	C445.356873,499.650543 461.185791,497.611359 476.977264,495.314972 
	C480.969269,494.734467 484.449158,494.820160 487.776794,497.464386 
	C489.564484,498.884888 491.890320,499.570007 494.294312,498.752869 
	C494.707855,492.749023 489.851959,485.665588 483.177216,482.513428 
	C475.445129,478.861938 467.194214,478.111023 458.808105,478.435516 
	C443.807007,479.015930 429.024109,481.152191 414.431824,484.721344 
	C409.704651,485.877594 404.955933,486.401672 403.172211,492.186859 
	C401.800110,496.636993 398.451019,500.365265 397.307495,506.150635 
	C408.338379,504.646851 418.495514,503.262177 429.541870,501.785126 
M505.524750,490.251251 
	C504.629944,492.877655 502.599457,496.069672 505.151398,498.099640 
	C507.766144,500.179626 510.553406,497.523987 512.647583,495.808838 
	C515.571289,493.414246 518.708862,492.768066 522.354736,492.837891 
	C546.459473,493.299561 570.566101,493.664703 594.673096,493.997070 
	C597.355896,494.034058 600.181213,494.687500 603.120544,493.189331 
	C600.327332,488.754730 597.723328,484.719940 595.225769,480.620361 
	C593.568970,477.900818 591.524597,476.186554 588.089783,476.029144 
	C583.787659,475.832001 579.506958,475.148956 575.219360,474.654968 
	C560.119873,472.915375 545.015015,472.809021 530.034607,475.478882 
	C520.386841,477.198334 511.253632,480.293762 505.524750,490.251251 
M386.301575,407.311371 
	C387.655365,437.333282 389.009155,467.355225 390.387634,497.924042 
	C397.877747,488.822784 400.621368,479.921631 399.492157,469.429840 
	C399.260742,467.279572 399.019379,465.124695 398.928772,462.965820 
	C397.805145,436.190735 396.723541,409.413818 395.578949,382.639648 
	C395.478485,380.289459 395.010498,377.954987 394.713196,375.613251 
	C391.705963,379.212830 389.759186,382.867004 387.824097,386.527344 
	C386.433594,389.157562 384.648499,391.690491 385.520325,394.934540 
	C386.531189,398.696075 386.154663,402.546204 386.301575,407.311371 
M605.537170,449.928558 
	C604.264954,430.014435 602.510254,410.114502 601.924622,390.180237 
	C601.633118,380.254913 596.334534,373.661316 590.454773,365.867523 
	C590.454773,370.417938 590.252441,374.027191 590.486877,377.607849 
	C592.354553,406.139099 594.592529,434.650177 596.060425,463.201202 
	C596.520203,472.143555 602.409546,477.226074 606.434204,483.744629 
	C606.872437,483.630402 607.310730,483.516144 607.748962,483.401917 
	C607.038513,472.553558 606.328064,461.705200 605.537170,449.928558 
z"/>
</svg>